<?xml version="1.0" encoding="utf-8"?>
<!-- Generator: Adobe Illustrator 27.5.0, SVG Export Plug-In . SVG Version: 6.00 Build 0)  -->
<svg version="1.1" xmlns="http://www.w3.org/2000/svg" xmlns:xlink="http://www.w3.org/1999/xlink" x="0px" y="0px"
	 viewBox="0 0 500 500" style="enable-background:new 0 0 500 500;" xml:space="preserve">
<g id="Background_Complete">
	<g>
		<g>
			<rect y="382.4" style="fill:#EBEBEB;" width="500" height="0.25"/>
			<rect x="416.78" y="398.49" style="fill:#EBEBEB;" width="33.12" height="0.25"/>
			<rect x="322.53" y="401.21" style="fill:#EBEBEB;" width="8.69" height="0.25"/>
			<rect x="396.59" y="389.21" style="fill:#EBEBEB;" width="19.19" height="0.25"/>
			<rect x="52.46" y="390.89" style="fill:#EBEBEB;" width="43.19" height="0.25"/>
			<rect x="104.56" y="390.89" style="fill:#EBEBEB;" width="6.33" height="0.25"/>
			<rect x="131.47" y="395.11" style="fill:#EBEBEB;" width="93.68" height="0.25"/>
			<path style="fill:#EBEBEB;" d="M237,337.8H43.91c-3.15-0.005-5.7-2.56-5.7-5.71V60.66c0.027-3.13,2.57-5.655,5.7-5.66H237
				c3.153,0,5.71,2.556,5.71,5.71l0,0v271.38C242.71,335.243,240.153,337.8,237,337.8z M43.91,55.2
				c-3.012,0.006-5.45,2.448-5.45,5.46v271.43c0,3.012,2.438,5.454,5.45,5.46H237c3.013-0.005,5.454-2.447,5.46-5.46V60.66
				c-0.006-3.013-2.447-5.454-5.46-5.46H43.91z"/>
			<path style="fill:#EBEBEB;" d="M453.31,337.8h-193.1c-3.151-0.005-5.704-2.559-5.71-5.71V60.66
				c0.033-3.132,2.578-5.655,5.71-5.66h193.1c3.126,0.011,5.663,2.534,5.69,5.66v271.43C459,335.236,456.456,337.789,453.31,337.8z
				 M260.21,55.2c-3.013,0.006-5.454,2.447-5.46,5.46v271.43c0.005,3.013,2.447,5.454,5.46,5.46h193.1
				c3.013-0.005,5.454-2.447,5.46-5.46V60.66c-0.005-3.013-2.447-5.454-5.46-5.46H260.21z"/>
		</g>
		<g>
			<rect x="101.26" y="285.562" style="fill:#F0F0F0;" width="16.421" height="91.679"/>
			<rect x="101.26" y="377.241" style="fill:#F0F0F0;" width="112.758" height="4.981"/>
			<rect x="116.361" y="285.562" style="fill:#F5F5F5;" width="97.658" height="91.679"/>
			<rect x="122.812" y="295.239" style="fill:#F0F0F0;" width="84.746" height="32.318"/>
			<rect x="122.812" y="335.247" style="fill:#F0F0F0;" width="84.746" height="32.318"/>
			<path style="fill:#F5F5F5;" d="M185.245,305.355h-40.102c-0.803,0-1.454-0.651-1.454-1.454v-0.628
				c0-0.803,0.651-1.454,1.454-1.454h40.102c0.803,0,1.454,0.651,1.454,1.454v0.628
				C186.699,304.704,186.048,305.355,185.245,305.355z"/>
			<path style="fill:#F5F5F5;" d="M185.245,345.371h-40.102c-0.803,0-1.454-0.651-1.454-1.454v-0.628
				c0-0.803,0.651-1.454,1.454-1.454h40.102c0.803,0,1.454,0.651,1.454,1.454v0.628C186.699,344.72,186.048,345.371,185.245,345.371
				z"/>
		</g>
		<g>
			<rect x="203.448" y="98.862" style="fill:#E6E6E6;" width="233.686" height="133.878"/>
			<rect x="205.074" y="98.862" style="fill:#F0F0F0;" width="235.534" height="133.878"/>
			<rect x="209.941" y="104.323" style="fill:#FAFAFA;" width="225.809" height="122.946"/>
			<polygon style="fill:#FFFFFF;" points="237.649,227.269 266.212,104.323 303.646,104.323 275.092,227.269 			"/>
			<polygon style="fill:#FFFFFF;" points="281.148,227.269 309.702,104.323 326.608,104.323 298.054,227.269 			"/>
			<polygon style="fill:#FFFFFF;" points="348.232,227.269 376.785,104.323 405.664,104.323 377.11,227.269 			"/>
			<rect x="435.118" y="104.323" style="fill:#E6E6E6;" width="0.622" height="122.946"/>
			<rect x="315.823" y="98.862" style="fill:#F0F0F0;" width="14.035" height="133.878"/>
			<rect x="315.201" y="104.323" style="fill:#E6E6E6;" width="0.622" height="122.946"/>
			<rect x="322.595" y="98.862" style="fill:#E6E6E6;" width="0.492" height="133.878"/>
		</g>
		<g>
			<rect x="76.685" y="101.02" style="fill:#E6E6E6;" width="62.116" height="95.233"/>
			<rect x="78.132" y="101.02" style="fill:#F5F5F5;" width="65.93" height="95.233"/>
			<rect x="82.327" y="105.223" style="fill:#FFFFFF;" width="57.523" height="86.826"/>
			<rect x="92.709" y="119.491" style="fill:#F5F5F5;" width="36.759" height="50.391"/>
		</g>
	</g>
</g>
<g id="Background_Simple" style="display:none;">
	<g style="display:inline;">
		<path style="fill:#407BFF;" d="M329.106,89.007c-2.708-0.132-5.413-0.174-8.102-0.125c-25.412,0.459-46.453,12.954-67.126,26.402
			c-16.4,10.668-31.626,19.693-50.993,24.216c-35.518,8.295-67.124,15.542-95.658,39.946c-9.962,8.52-19.003,18.449-24.604,30.301
			c-4.923,10.417-7.018,21.946-8.17,33.41c-1.693,16.84-1.409,34.145,3.672,50.289c7.64,24.276,25.862,44.37,47.653,57.515
			c21.791,13.145,46.973,19.814,72.231,22.918c55.737,6.849,115.998-7.12,160.515-42.074
			c55.681-43.721,89.768-137.564,48.854-201.889C390.583,103.511,359.577,90.495,329.106,89.007z"/>
		<path style="opacity:0.9;fill:#FFFFFF;" d="M329.106,89.007c-2.708-0.132-5.413-0.174-8.102-0.125
			c-25.412,0.459-46.453,12.954-67.126,26.402c-16.4,10.668-31.626,19.693-50.993,24.216c-35.518,8.295-67.124,15.542-95.658,39.946
			c-9.962,8.52-19.003,18.449-24.604,30.301c-4.923,10.417-7.018,21.946-8.17,33.41c-1.693,16.84-1.409,34.145,3.672,50.289
			c7.64,24.276,25.862,44.37,47.653,57.515c21.791,13.145,46.973,19.814,72.231,22.918c55.737,6.849,115.998-7.12,160.515-42.074
			c55.681-43.721,89.768-137.564,48.854-201.889C390.583,103.511,359.577,90.495,329.106,89.007z"/>
	</g>
</g>
<g id="Process">
	<g>
		
			<path style="fill:none;stroke:#E6E6E6;stroke-linecap:round;stroke-linejoin:round;stroke-miterlimit:10;stroke-dasharray:4,4;" d="
			M77.224,173.28c14.289-66.238,73.208-115.874,143.719-115.874c68.911,0,126.388,45.99,142.316,109.971"/>
		<g>
			<path style="fill:#407BFF;" d="M77.224,159.22c-13.008,0.004-23.547,10.539-23.547,23.547c0,4.677,3.604,11.499,5.276,14.418
				c0.728,1.272,1.422,2.561,2.087,3.866l4.657,9.151c0.584,1.147,1.762,1.87,3.05,1.87h8.478h8.478c1.287,0,2.466-0.723,3.05-1.87
				l4.657-9.151c0.665-1.305,1.359-2.594,2.087-3.866c1.671-2.918,5.276-9.741,5.276-14.418
				C100.771,169.759,90.232,159.224,77.224,159.22z"/>
			<path style="fill:none;stroke:#FAFAFA;stroke-linecap:round;stroke-linejoin:round;stroke-miterlimit:10;" d="M72.208,212.072
				c0,0-0.813-21.729-5.561-20.964c-4.748,0.766-2.219,7.768,9.645,8.157c11.864,0.389,11.215-8.184,8.72-8.176
				c-2.495,0.007-6.533,9.57-3.857,20.983"/>
			<path style="fill:none;stroke:#FAFAFA;stroke-linecap:round;stroke-linejoin:round;stroke-miterlimit:10;" d="M64.387,167.543
				c3.196-3.352,7.934-5.665,14.839-4.784"/>
			<path style="fill:none;stroke:#FAFAFA;stroke-linecap:round;stroke-linejoin:round;stroke-miterlimit:10;" d="M60.204,172.403
				c0.475-0.786,1.158-1.654,2.142-2.521"/>
			<g>
				<path style="fill:#407BFF;" d="M88.521,222.551c0,0.108,0,0.205-0.01,0.313c-0.02,0.486-0.088,0.951-0.206,1.394
					c-0.264,1.102-0.793,2.096-1.508,2.885c-1.067,1.178-2.536,1.902-4.162,1.902H70.414c-2.713,0-5.004-2.031-5.67-4.787
					c-0.118-0.443-0.186-0.908-0.206-1.394c-0.01-0.108-0.01-0.205-0.01-0.313c0-0.205,0.01-0.4,0.029-0.594
					c0-0.054,0.01-0.119,0.02-0.173c0.039-0.443,0.137-0.864,0.255-1.275c0.284-0.972,0.774-1.837,1.42-2.55
					c1.067-1.178,2.536-1.902,4.162-1.902h12.222c2.595,0,4.808,1.869,5.572,4.452c0.127,0.4,0.225,0.832,0.264,1.275
					c0.01,0.054,0.02,0.119,0.02,0.173C88.511,222.151,88.521,222.345,88.521,222.551z"/>
				<path style="opacity:0.2;" d="M88.208,220.508H64.832c0.284-0.972,0.774-1.837,1.42-2.55c1.067-1.178,2.536-1.902,4.162-1.902
					h12.222C85.231,216.057,87.444,217.926,88.208,220.508z"/>
				<path style="opacity:0.2;" d="M88.306,224.258c-0.264,1.102-0.793,2.096-1.508,2.885c-1.067,1.178-2.536,1.902-4.162,1.902
					H70.414c-2.713,0-5.004-2.031-5.67-4.787H88.306z"/>
				<g style="opacity:0.3;">
					<path d="M88.521,222.551c0,0.108,0,0.205-0.01,0.313H64.538c-0.01-0.108-0.01-0.205-0.01-0.313c0-0.205,0.01-0.4,0.029-0.594
						c0-0.054,0.01-0.119,0.02-0.173h23.895c0.01,0.054,0.02,0.119,0.02,0.173C88.511,222.151,88.521,222.345,88.521,222.551z"/>
				</g>
			</g>
		</g>
		<g>
			<path style="fill:#407BFF;" d="M76.517,235.859c0,0.868-0.704,1.572-1.572,1.572c-0.868,0-1.572-0.704-1.572-1.572
				c0-0.868,0.704-1.572,1.572-1.572C75.813,234.286,76.517,234.99,76.517,235.859z"/>
			<polyline style="fill:none;stroke:#407BFF;stroke-miterlimit:10;" points="74.945,235.859 74.945,274.308 84.219,274.308 
				84.219,343.656 			"/>
		</g>
		<g>
			<path style="fill:#407BFF;" d="M130.348,105.493l0.021-2.31l-1.43-0.427c-0.08-0.779-0.226-1.55-0.436-2.304l1.195-0.92
				l-0.871-2.147l-1.483,0.159c-0.367-0.688-0.791-1.344-1.268-1.961l0.735-1.304l-1.626-1.647l-1.31,0.715
				c-0.607-0.496-1.254-0.94-1.935-1.328l0.176-1.479l-2.131-0.903l-0.934,1.157c-0.751-0.223-1.519-0.383-2.297-0.478l-0.396-1.434
				l-2.316-0.021l-0.421,1.424c-0.779,0.082-1.549,0.228-2.304,0.436l-0.926-1.195l-2.147,0.865l0.159,1.483
				c-0.688,0.367-1.343,0.792-1.96,1.268l-1.298-0.741l-1.653,1.62l0.716,1.316c-0.497,0.606-0.94,1.256-1.322,1.94l-1.479-0.188
				l-0.909,2.131l1.163,0.933c-0.228,0.752-0.388,1.523-0.478,2.303l-1.44,0.402l-0.021,2.304l1.43,0.427
				c0.079,0.781,0.225,1.554,0.436,2.311l-1.196,0.914l0.871,2.147l1.483-0.159c0.363,0.69,0.788,1.346,1.268,1.961l-0.741,1.304
				l1.626,1.647l1.31-0.709c0.607,0.494,1.254,0.936,1.934,1.322l-0.182,1.479l2.131,0.903l0.94-1.151
				c0.753,0.221,1.524,0.379,2.303,0.472l0.396,1.44l2.31,0.021l0.421-1.43c0.781-0.079,1.554-0.225,2.311-0.436l0.914,1.196
				l2.147-0.865l-0.153-1.477c0.685-0.372,1.341-0.796,1.961-1.268l1.298,0.735l1.653-1.62l-0.709-1.316
				c0.495-0.604,0.936-1.252,1.316-1.934l1.479,0.182l0.909-2.131l-1.157-0.934c0.223-0.75,0.382-1.519,0.472-2.297L130.348,105.493
				z M114.991,109.582c-2.96-0.033-5.333-2.46-5.299-5.421c0.034-2.96,2.46-5.333,5.421-5.299c2.951,0.033,5.32,2.445,5.3,5.396
				c-0.02,2.96-2.436,5.344-5.396,5.324C115.007,109.582,114.999,109.582,114.991,109.582L114.991,109.582z"/>
			<path style="fill:#263238;" d="M407.938,137.9l-3.306-3.428l0,0c-0.098-1.45-0.34-2.887-0.725-4.289l1.761-3.647l-4.324-7.069
				l-3.993-0.069c-1.071-0.976-2.236-1.845-3.476-2.595l0,0l-1.553-4.485l-8.06-1.93l-3.428,3.306l0,0
				c-1.451,0.091-2.889,0.334-4.289,0.725l-3.644-1.774l-7.072,4.337l-0.069,3.993l0,0c-0.985,1.064-1.855,2.229-2.595,3.476
				l-4.473,1.556l-1.943,8.058l3.306,3.428c0.09,1.459,0.331,2.905,0.72,4.315l0,0l-1.761,3.647l4.324,7.069l3.99,0.082
				c1.072,0.975,2.236,1.844,3.476,2.595l0,0l1.543,4.47l8.07,1.945l3.415-3.308c1.463-0.092,2.913-0.333,4.328-0.717l0,0
				l3.647,1.761l7.069-4.324l0.082-3.99c0.978-1.07,1.847-2.234,2.595-3.476l0,0l4.472-1.556L407.938,137.9z M380.12,145.057
				c-5.003-1.204-8.083-6.236-6.879-11.239c1.204-5.003,6.236-8.083,11.239-6.879c5.003,1.204,8.083,6.236,6.879,11.239
				c0,0.001,0,0.001,0,0.002C390.147,143.178,385.121,146.253,380.12,145.057L380.12,145.057z"/>
			<g>
				<path style="fill:#263238;" d="M230.76,53.95l-4.154-2.852l0,0c-0.409-1.483-0.965-2.921-1.661-4.292l1.052-4.153l-5.981-6.41
					l-4.154,0.775c-1.318-0.785-2.709-1.438-4.154-1.952l0,0l-2.561-4.32l-8.764-0.291l-2.852,4.153l0,0
					c-1.485,0.403-2.923,0.959-4.292,1.661l-4.154-1.066l-6.41,5.995l0.775,4.153l0,0c-0.796,1.312-1.45,2.704-1.952,4.154
					l-4.306,2.561l-0.305,8.764l4.154,2.852c0.403,1.494,0.959,2.941,1.661,4.32l0,0l-1.052,4.154l5.981,6.41l4.154-0.762
					c1.318,0.783,2.709,1.437,4.154,1.952l0,0l2.548,4.306l8.778,0.305l2.838-4.154c1.497-0.406,2.949-0.963,4.334-1.661l0,0
					l4.153,1.052l6.41-5.981l-0.761-4.154c0.787-1.316,1.441-2.708,1.952-4.154l0,0l4.306-2.561L230.76,53.95z M203.444,67.269
					c-5.441-0.187-9.701-4.749-9.514-10.19c0.187-5.441,4.749-9.701,10.19-9.514c5.441,0.187,9.701,4.749,9.514,10.19
					c0,0.001,0,0.001,0,0.002C213.438,63.194,208.881,67.448,203.444,67.269L203.444,67.269z"/>
				
					<ellipse transform="matrix(0.7071 -0.7071 0.7071 0.7071 19.1065 160.9394)" style="fill:none;stroke:#FFFFFF;stroke-miterlimit:10;" cx="203.824" cy="57.406" rx="13.796" ry="13.796"/>
			</g>
			<g>
				<path style="fill:#407BFF;" d="M355.323,100.984l1.321-5.488l-3.171-1.804c0.238-1.899,0.315-3.814,0.23-5.726l3.352-1.532
					l-0.892-5.591l-3.618-0.437c-0.495-1.84-1.144-3.634-1.941-5.365l2.467-2.701l-2.965-4.815l-3.513,0.983
					c-1.172-1.514-2.469-2.928-3.875-4.227l1.232-3.425l-4.577-3.322l-2.859,2.241c-1.666-0.943-3.407-1.747-5.206-2.402
					l-0.153-3.632l-5.503-1.323l-1.786,3.159c-1.899-0.233-3.815-0.31-5.726-0.23l-1.547-3.355l-5.588,0.877l-0.436,3.618
					c-1.84,0.496-3.634,1.145-5.365,1.941l-2.683-2.479l-4.827,2.947l0.98,3.528c-1.517,1.17-2.928,2.473-4.215,3.893l-3.419-1.262
					l-3.336,4.574l2.255,2.862c-0.957,1.664-1.762,3.411-2.405,5.22l-3.65,0.165l-1.318,5.473l3.171,1.804
					c-0.241,1.904-0.319,3.824-0.233,5.741l-3.349,1.518l0.892,5.591l3.618,0.436c0.486,1.843,1.135,3.638,1.941,5.365l-2.482,2.698
					l2.965,4.815l3.51-0.968c1.173,1.509,2.471,2.918,3.878,4.212l-1.247,3.422l4.577,3.322l2.871-2.223
					c1.671,0.941,3.419,1.741,5.223,2.391l0.15,3.647l5.488,1.321l1.789-3.174c1.904,0.241,3.824,0.319,5.741,0.233l1.518,3.349
					l5.588-0.877l0.448-3.6c1.836-0.508,3.629-1.157,5.365-1.941l2.686,2.464l4.827-2.947l-0.965-3.525
					c1.512-1.167,2.916-2.465,4.198-3.881l3.422,1.247l3.336-4.574l-2.241-2.859c0.945-1.664,1.744-3.407,2.388-5.209
					L355.323,100.984z M315.48,106.504c-9.368-2.276-15.117-11.716-12.841-21.084c2.276-9.368,11.716-15.117,21.084-12.841
					c9.338,2.269,15.086,11.659,12.859,21.008c-2.234,9.378-11.648,15.17-21.026,12.936
					C315.531,106.517,315.506,106.51,315.48,106.504L315.48,106.504z"/>
				<path style="opacity:0.2;" d="M355.323,100.984l1.321-5.488l-3.171-1.804c0.238-1.899,0.315-3.814,0.23-5.726l3.352-1.532
					l-0.892-5.591l-3.618-0.437c-0.495-1.84-1.144-3.634-1.941-5.365l2.467-2.701l-2.965-4.815l-3.513,0.983
					c-1.172-1.514-2.469-2.928-3.875-4.227l1.232-3.425l-4.577-3.322l-2.859,2.241c-1.666-0.943-3.407-1.747-5.206-2.402
					l-0.153-3.632l-5.503-1.323l-1.786,3.159c-1.899-0.233-3.815-0.31-5.726-0.23l-1.547-3.355l-5.588,0.877l-0.436,3.618
					c-1.84,0.496-3.634,1.145-5.365,1.941l-2.683-2.479l-4.827,2.947l0.98,3.528c-1.517,1.17-2.928,2.473-4.215,3.893l-3.419-1.262
					l-3.336,4.574l2.255,2.862c-0.957,1.664-1.762,3.411-2.405,5.22l-3.65,0.165l-1.318,5.473l3.171,1.804
					c-0.241,1.904-0.319,3.824-0.233,5.741l-3.349,1.518l0.892,5.591l3.618,0.436c0.486,1.843,1.135,3.638,1.941,5.365l-2.482,2.698
					l2.965,4.815l3.51-0.968c1.173,1.509,2.471,2.918,3.878,4.212l-1.247,3.422l4.577,3.322l2.871-2.223
					c1.671,0.941,3.419,1.741,5.223,2.391l0.15,3.647l5.488,1.321l1.789-3.174c1.904,0.241,3.824,0.319,5.741,0.233l1.518,3.349
					l5.588-0.877l0.448-3.6c1.836-0.508,3.629-1.157,5.365-1.941l2.686,2.464l4.827-2.947l-0.965-3.525
					c1.512-1.167,2.916-2.465,4.198-3.881l3.422,1.247l3.336-4.574l-2.241-2.859c0.945-1.664,1.744-3.407,2.388-5.209
					L355.323,100.984z M315.48,106.504c-9.368-2.276-15.117-11.716-12.841-21.084c2.276-9.368,11.716-15.117,21.084-12.841
					c9.338,2.269,15.086,11.659,12.859,21.008c-2.234,9.378-11.648,15.17-21.026,12.936
					C315.531,106.517,315.506,106.51,315.48,106.504L315.48,106.504z"/>
				<circle style="fill:none;stroke:#FFFFFF;stroke-miterlimit:10;" cx="319.614" cy="89.541" r="22.788"/>
			</g>
		</g>
	</g>
</g>
<g id="Stars">
	<g>
		<polygon style="fill:#407BFF;" points="440.867,148.744 435.125,148.714 431.846,153.427 430.1,147.957 424.605,146.295 
			429.267,142.944 429.15,137.204 433.777,140.603 439.201,138.718 437.398,144.169 		"/>
		<polygon style="fill:#407BFF;" points="445.076,169.181 446.944,166.198 445.545,162.967 448.96,163.822 451.6,161.493 
			451.843,165.005 454.873,166.796 451.608,168.112 450.841,171.548 448.581,168.849 		"/>
		<polygon style="fill:none;stroke:#407BFF;stroke-miterlimit:10;" points="391.596,329.263 390.516,337.498 396.686,343.056 
			388.521,344.573 385.141,352.159 381.176,344.862 372.917,343.992 378.631,337.966 376.906,329.842 384.403,333.414 		"/>
		<polygon style="fill:#407BFF;" points="411.914,328.326 409.188,326.099 405.808,327.084 407.083,323.802 405.102,320.892 
			408.617,321.09 410.773,318.308 411.67,321.711 414.983,322.902 412.023,324.807 		"/>
	</g>
</g>
<g id="Shape">
	<ellipse style="fill:#F5F5F5;" cx="250" cy="445.41" rx="202.276" ry="11.41"/>
</g>
<g id="Screen">
	<g>
		<path style="fill:#FFFFFF;stroke:#407BFF;stroke-linecap:round;stroke-linejoin:round;stroke-miterlimit:10;" d="M450.784,193.954
			v81.948c0,6.768-5.488,12.249-12.249,12.249H283.981c-6.761,0-12.249-5.481-12.249-12.249v-81.948
			c0-0.484,0.029-0.969,0.087-1.439c0.709-6.081,5.886-10.81,12.162-10.81h154.553c6.276,0,11.454,4.729,12.162,10.81
			C450.755,192.986,450.784,193.47,450.784,193.954z"/>
		
			<path style="fill:none;stroke:#407BFF;stroke-linecap:round;stroke-linejoin:round;stroke-miterlimit:10;stroke-dasharray:5,5;" d="
			M307.586,245.851c-2.207-5.624-3.033-11.74-2.003-17.683c1.838-10.603,10.115-20.154,20.67-22.247
			c15.333-3.041,30.041,9.067,45.659,8.412c10.965-0.46,22.412-7.106,32.258-2.259c15.599,7.679,11.222,31.575,3.703,43.238
			c-7.811,12.116-22.056,19.181-35.905,21.761"/>
		<g>
			<g>
				<polygon style="fill:#FFFFFF;stroke:#263238;stroke-miterlimit:10;" points="311.387,296.618 327.985,303.39 337.973,294.996 
					337.022,263.433 331.435,261.153 308.996,283.173 				"/>
				<path style="fill:#407BFF;" d="M320.73,311.01l-9.645-3.935c-1.943-0.793-2.876-3.011-2.083-4.955l0,0
					c0.793-1.944,3.011-2.876,4.955-2.083l9.645,3.935c1.943,0.793,2.876,3.011,2.083,4.955l0,0
					C324.892,310.871,322.674,311.803,320.73,311.01z"/>
				<line style="fill:none;stroke:#263238;stroke-miterlimit:10;" x1="334.248" y1="262.301" x2="326.289" y2="281.808"/>
				<path style="fill:#263238;" d="M327.948,282.485c-0.374,0.916-1.419,1.356-2.335,0.982c-0.916-0.374-1.355-1.419-0.982-2.335
					c0.374-0.916,1.419-1.355,2.335-0.982C327.882,280.523,328.322,281.569,327.948,282.485z"/>
				<path style="opacity:0.2;" d="M320.73,311.01l-9.645-3.935c-1.943-0.793-2.876-3.011-2.083-4.955l0,0
					c0.793-1.944,3.011-2.876,4.955-2.083l9.645,3.935c1.943,0.793,2.876,3.011,2.083,4.955l0,0
					C324.892,310.871,322.674,311.803,320.73,311.01z"/>
			</g>
			<path style="fill:none;stroke:#263238;stroke-miterlimit:10;" d="M287.833,283.514c7.211-18.808,28.304-28.209,47.112-20.998
				c18.808,7.211,28.209,28.304,20.998,47.112"/>
			
				<rect x="354.549" y="309.38" transform="matrix(0.8919 0.4523 -0.4523 0.8919 178.8553 -127.2634)" style="fill:none;stroke:#263238;stroke-miterlimit:10;" width="2.029" height="2.029"/>
			
				<rect x="286.452" y="283.335" transform="matrix(0.8919 0.4523 -0.4523 0.8919 159.6929 -99.2722)" style="fill:none;stroke:#263238;stroke-miterlimit:10;" width="2.029" height="2.029"/>
			<line style="fill:none;stroke:#263238;stroke-miterlimit:10;" x1="310.351" y1="251.75" x2="366.171" y2="275.957"/>
			<path style="fill:#407BFF;" d="M367.459,276.247c-0.085,0.535-0.588,0.899-1.123,0.814c-0.535-0.085-0.899-0.588-0.814-1.123
				c0.085-0.535,0.588-0.899,1.122-0.814C367.18,275.21,367.545,275.712,367.459,276.247z"/>
			<path style="fill:#407BFF;" d="M311.395,251.937c-0.085,0.535-0.588,0.899-1.123,0.813c-0.535-0.085-0.899-0.588-0.814-1.123
				c0.085-0.535,0.588-0.899,1.123-0.814C311.116,250.9,311.48,251.403,311.395,251.937z"/>
		</g>
		<path style="fill:#407BFF;" d="M450.697,192.516H271.819c0.709-6.081,5.886-10.81,12.162-10.81h154.553
			C444.811,181.705,449.989,186.434,450.697,192.516z"/>
		<g>
			<path style="fill:#FFFFFF;" d="M412.759,186.581c0,1.107-0.897,2.004-2.004,2.004c-1.107,0-2.004-0.897-2.004-2.004
				c0-1.107,0.897-2.004,2.004-2.004C411.862,184.577,412.759,185.474,412.759,186.581z"/>
			<circle style="fill:#FFFFFF;" cx="420.956" cy="186.581" r="2.004"/>
			<path style="fill:#FFFFFF;" d="M433.16,186.581c0,1.107-0.897,2.004-2.004,2.004c-1.107,0-2.004-0.897-2.004-2.004
				c0-1.107,0.897-2.004,2.004-2.004C432.263,184.577,433.16,185.474,433.16,186.581z"/>
		</g>
		<g>
			
				<rect x="425.924" y="196.197" style="fill:none;stroke:#407BFF;stroke-width:0.75;stroke-linecap:round;stroke-linejoin:round;stroke-miterlimit:10;" width="18.147" height="30.094"/>
			<rect x="429.153" y="198.769" style="fill:#407BFF;" width="4.008" height="4.008"/>
			<rect x="437.313" y="198.769" style="fill:#407BFF;" width="4.008" height="4.008"/>
			<rect x="429.153" y="205.517" style="fill:#407BFF;" width="4.008" height="4.008"/>
			<rect x="437.313" y="205.517" style="fill:#407BFF;" width="4.008" height="4.008"/>
			<rect x="429.153" y="212.265" style="fill:#407BFF;" width="4.008" height="4.008"/>
			<rect x="437.313" y="212.265" style="fill:#407BFF;" width="4.008" height="4.008"/>
			<rect x="429.153" y="219.013" style="fill:#407BFF;" width="4.008" height="4.008"/>
			<rect x="437.313" y="219.013" style="fill:#407BFF;" width="4.008" height="4.008"/>
			<rect x="437.313" y="198.769" style="opacity:0.1;" width="4.008" height="4.008"/>
			<rect x="429.153" y="205.517" style="opacity:0.2;" width="4.008" height="4.008"/>
			<rect x="437.313" y="205.517" style="opacity:0.3;" width="4.008" height="4.008"/>
			<rect x="429.153" y="212.265" style="opacity:0.4;" width="4.008" height="4.008"/>
			<rect x="437.313" y="212.265" style="opacity:0.5;" width="4.008" height="4.008"/>
			<rect x="429.153" y="219.013" style="opacity:0.6;" width="4.008" height="4.008"/>
			<rect x="437.313" y="219.013" style="opacity:0.7;" width="4.008" height="4.008"/>
		</g>
	</g>
</g>
<g id="Character">
	<g>
		
			<path style="fill:none;stroke:#263238;stroke-linecap:round;stroke-linejoin:round;stroke-miterlimit:10;stroke-dasharray:5,5;" d="
			M128.434,378.909c11.673,7.657,17.751,22.246,17.097,36.191c-0.318,6.79-2.194,13.736-6.632,18.883
			c-4.396,5.097-10.835,7.944-17.246,9.994c-6.583,2.106-13.56,3.552-20.395,2.526c-6.835-1.025-13.535-4.884-16.542-11.108
			c-3.158-6.535-1.809-14.316,0.365-21.241c2.175-6.924,5.142-13.81,5.054-21.067c-0.069-5.64-1.988-11.064-3.406-16.523
			c-1.418-5.459-2.327-11.346-0.424-16.656c1.903-5.309,7.446-9.675,12.959-8.487"/>
		<g>
			<path style="fill:#263238;" d="M199.994,136.575c0,0-9.092-8.066-18.464,0c-9.372,8.066-10.479,28.884-17.438,38.087
				c0,0,3.777,7.779,18.732,8.728c14.955,0.949,31.246-14.234,31.246-14.234S216.6,133.253,199.994,136.575z"/>
			<path style="fill:#407BFF;" d="M185.104,177.453c-0.868,0.283-7.613,2.161-18.661,9.192l8.035,18.481
				c0,0,2.519,14.262,8.592,23.101l12.501,11.651l24.507-10.848l-6.629-34.551l0.603-17.677
				C214.052,176.802,205.574,170.779,185.104,177.453z"/>
			<path style="fill:#B55B52;" d="M205.514,157.663c-0.72,4.66-4.97,4.66-4.97,4.66c-0.93,1.55-3.42,3.63-3.42,3.63
				c1.079,8.355,6.35,8.355,6.35,8.355c-8.29,13.68-18.37,3.145-18.37,3.145c2.91-1.27,3.81-3.3,3.97-5.03
				c0.17-1.79-0.45-3.26-0.45-3.26c-7.25-0.1-10.98-5.08-10.77-12.44c0.2-7.35,4.66-14.09,4.66-14.09
				c4.77,1.87,13.37-0.52,13.37-0.52c-0.42,11.3,4.76,13.27,4.76,13.27S206.244,152.993,205.514,157.663z"/>
			<path style="fill:none;stroke:#263238;stroke-width:0.5;stroke-linecap:round;stroke-linejoin:round;stroke-miterlimit:10;" d="
				M185.341,160.023c0,0,3.283,0.992,5.149-2.171"/>
			<path style="fill:#263238;" d="M188.821,152.356c-0.025,0.665-0.381,1.192-0.795,1.176c-0.414-0.016-0.729-0.568-0.703-1.233
				c0.025-0.666,0.381-1.192,0.795-1.176C188.531,151.138,188.846,151.69,188.821,152.356z"/>
			<path style="fill:#263238;" d="M180.973,151.635c-0.023,0.613-0.351,1.098-0.732,1.083c-0.381-0.014-0.671-0.523-0.647-1.136
				c0.023-0.613,0.351-1.098,0.732-1.083C180.706,150.513,180.996,151.022,180.973,151.635z"/>
			<path style="fill:none;stroke:#263238;stroke-width:0.75;stroke-linecap:round;stroke-linejoin:round;stroke-miterlimit:10;" d="
				M188.87,147.836c0,0,1.769-0.163,3.24,2.056"/>
			<path style="fill:#A02724;" d="M183.963,156.969v-5.375l-2.613,4.561C181.349,156.154,182.726,157.234,183.963,156.969z"/>
			<path style="fill:none;stroke:#263238;stroke-linecap:round;stroke-linejoin:round;stroke-miterlimit:10;" d="M247.039,212.64"/>
			<path style="fill:#407BFF;" d="M177.844,193.953l-0.73,17.27c-0.39,0.11-0.77,0.21-1.14,0.3c-0.64,0.16-1.26,0.28-1.87,0.38
				c-11.3,1.92-17.57-4.63-17.57-4.63l9.91-20.63L177.844,193.953z"/>
			<path style="fill:none;stroke:#263238;stroke-width:0.75;stroke-linecap:round;stroke-linejoin:round;stroke-miterlimit:10;" d="
				M181.886,146.633c-0.509-0.023-1.169,0.045-1.934,0.348"/>
			<path style="fill:#263238;" d="M184.119,254.774c0,0,1.009,28.433,3.737,70.93c2.728,42.496,17.728,100.128,17.728,100.128
				h14.495c0,0-7.956-107.114-8.538-133.893c0,0,34.928,90.232,62.871,119.921l9.314-5.821c0,0-37.839-88.486-41.914-101.293
				c-4.075-12.807-8.539-60.035-21.734-75.716h-23.673L184.119,254.774z"/>
			<polygon style="fill:#B55B52;" points="210.832,428.616 212.901,440.619 221.892,440.379 220.404,428.616 			"/>
			<path style="fill:#B55B52;" d="M276.962,414.322c0.2,0.399,5.187,8.778,5.187,8.778l6.184-6.583l-5.686-7.78L276.962,414.322z"/>
			<polygon style="fill:#407BFF;" points="202.712,424.319 224.116,422.673 223.018,430.356 206.371,431.82 			"/>
			<polygon style="fill:#407BFF;" points="270.977,413.623 285.042,402.95 287.036,409.842 275.665,417.713 			"/>
			<g>
				<polygon style="fill:#407BFF;" points="118.995,373.279 119.075,339.757 147.345,354.252 				"/>
				<polygon style="fill:#407BFF;" points="268.569,117.806 147.346,354.253 138.38,349.661 127.868,344.269 119.075,339.757 
					240.289,103.311 250.006,108.287 261.361,114.107 				"/>
				<polygon style="opacity:0.4;" points="130.409,365.62 118.993,373.283 119.027,360.06 				"/>
				<polygon style="opacity:0.2;" points="268.569,117.806 147.346,354.253 138.38,349.661 261.361,114.107 				"/>
				<polygon style="opacity:0.2;" points="250.006,108.287 127.868,344.269 119.075,339.757 240.289,103.311 				"/>
				<polygon style="opacity:0.4;" points="147.344,354.252 118.993,373.283 119.028,359.511 119.072,339.754 				"/>
			</g>
			<path style="fill:#B55B52;" d="M243.764,213.314c-18.11,18.49-41.96,8.86-41.96,8.86c-2.48-0.39-4.07-2.7-4.07-2.7l-6.55-2.34
				l2.5-6.32l7.13,1.92l5.2,3.85c18.68,3.28,27.91-8.2,27.91-8.2c-0.77-5.02-2.91-10.59-4.63-14.48l6.97-13.6
				c0.11,0.17,0.22,0.34,0.33,0.51C247.134,197.814,243.764,213.314,243.764,213.314z"/>
			<path style="fill:#B55B52;" d="M188.414,232.424l-5.05,2c-4.34,3.57-10.37,1.56-10.37,1.56c-18.6,4.78-26.75-1.11-26.75-1.11
				c2.57-8.41,7.856-18.206,12.466-25.886c1.92,1.27,5.425,2.85,9.651,3.207c-4.51,7.436-8.823,16.678-8.823,16.678
				c4.68,2.45,15.935-1.358,15.935-1.358l11.56-1.11L188.414,232.424z"/>
			<path style="opacity:0.4;" d="M211.541,291.939l-4.737-17.338c0,0,5.11,27.423,5.138,28.022
				C211.97,303.222,211.541,291.939,211.541,291.939z"/>
			<g>
				<path style="fill:none;stroke:#407BFF;stroke-miterlimit:10;" d="M281.893,424.37c0,0-4.699-2.535-5.379-0.742
					C275.834,425.421,281.893,424.37,281.893,424.37z"/>
				<path style="fill:none;stroke:#407BFF;stroke-miterlimit:10;" d="M281.893,424.988c0,0-5.04,1.237-4.931,2.349
					C277.07,428.451,281.893,424.988,281.893,424.988z"/>
				<path style="fill:#263238;" d="M290.724,416.694l3.92,3.19c0.96,0.781,1.062,2.209,0.224,3.12l-12.913,14.024
					c-0.066,0.072-0.134,0.136-0.209,0.199c-0.601,0.5-3.327,2.643-4.647,1.561c-1.489-1.221,2.955-5.739,3.258-8.096
					c0.233-1.812,0.691-5.593,0.89-7.243c0.063-0.518,0.311-0.992,0.701-1.339l5.991-5.351
					C288.726,416.055,289.906,416.028,290.724,416.694z"/>
			</g>
			<g>
				<path style="fill:none;stroke:#407BFF;stroke-miterlimit:10;" d="M210.832,441.563c0,0-2.318-4.863-3.59-3.965
					C205.97,438.496,210.832,441.563,210.832,441.563z"/>
				<path style="fill:none;stroke:#407BFF;stroke-miterlimit:10;" d="M210.459,441.563c0,0-5.162-2.817-5.761-1.184
					C204.1,442.012,210.459,441.563,210.459,441.563z"/>
				<path style="fill:#263238;" d="M223.381,440.379h-12.549c0,0-4.226,3.959-9.287,5.083s-4.592,1.968-4.592,1.968
					s-0.843,2.155,2.249,2.624c3.093,0.469,22.463,0.562,24.914,0C226.567,449.492,223.381,440.379,223.381,440.379z"/>
			</g>
			<path style="fill:#263238;" d="M188.125,151.181l-2.005-0.292C186.12,150.89,186.848,152.085,188.125,151.181z"/>
			<path style="fill:#263238;" d="M180.358,150.496l-1.633-0.295C178.725,150.201,179.376,151.314,180.358,150.496z"/>
			<path style="opacity:0.2;enable-background:new    ;" d="M193.824,168.413c0,0-1.05,3.59-4.75,4.01
				c0.17-1.79-0.45-3.26-0.45-3.26S192.104,169.013,193.824,168.413z"/>
			<path style="opacity:0.2;" d="M175.974,211.523c-0.64,0.16-1.26,0.28-1.87,0.38l1.06-9.41L175.974,211.523z"/>
		</g>
	</g>
</g>
</svg>
